<?xml version="1.0" encoding="utf-8"?>
<!-- Generator: Adobe Illustrator 26.0.0, SVG Export Plug-In . SVG Version: 6.00 Build 0)  -->
<svg version="1.1" id="Camada_1" xmlns="http://www.w3.org/2000/svg" xmlns:xlink="http://www.w3.org/1999/xlink" x="0px" y="0px"
	 viewBox="0 0 700 700" style="enable-background:new 0 0 700 700;" xml:space="preserve">
<path d="M350.3,504.68h47.94c1.58,0,2.57,1.86,1.79,3.37l-24,46.63l-25.73,50l-25.73-50l-24-46.63c-0.77-1.51,0.22-3.37,1.79-3.37
	H350.3z"/>
<path d="M295.09,201.73l0,296.53c0,1.54-0.62,2.32-0.98,1.23L195.09,200l99.43,0C294.83,200,295.09,200.78,295.09,201.73z"/>
<path d="M404.91,496.95V203.04c0-1.68,0.45-3.04,1-3.04h99l-98.29,299.1C405.99,501.02,404.91,499.66,404.91,496.95z"/>
<path d="M399,500h-98c-0.55,0-1-0.45-1-1V201c0-0.55,0.45-1,1-1h98c0.55,0,1,0.45,1,1v298C400,499.55,399.55,500,399,500z"/>
<path d="M400.3,136.64v56.3c0,1.12-0.45,2.02-1,2.02l-99,0l98.93-59.93C399.76,134.71,400.3,135.51,400.3,136.64z"/>
</svg>
